<svg width="11" height="116" viewBox="0 0 11 116" fill="none" xmlns="http://www.w3.org/2000/svg">
<path d="M6.15967 107.367C7.6056 107.969 8.62222 109.396 8.62256 111.06C8.62256 113.269 6.8317 115.06 4.62256 115.06C2.41364 115.06 0.622559 113.269 0.622559 111.06C0.622978 109.008 2.16908 107.317 4.15967 107.087L4.15967 86.9995H6.15967L6.15967 107.367ZM4.62256 109.06C3.51849 109.06 2.62301 109.956 2.62256 111.06C2.62256 112.164 3.51821 113.06 4.62256 113.06C5.72713 113.06 6.62256 112.165 6.62256 111.06C6.62211 109.956 5.72685 109.06 4.62256 109.06ZM4.98486 0.719238C5.09147 0.484865 5.42513 0.484866 5.53174 0.719238L10.0415 10.6421C10.1174 10.8092 9.94683 10.9816 9.77881 10.9077L6.51221 9.47021L6.51221 28.4136L4.51221 28.4136L4.51221 9.24658L0.737793 10.9077C0.569769 10.9816 0.399236 10.8092 0.475098 10.6421L4.98486 0.719238Z" fill="black"/>
</svg>
