<?xml version="1.0" standalone="no"?><!DOCTYPE svg PUBLIC "-//W3C//DTD SVG 1.1//EN" "http://www.w3.org/Graphics/SVG/1.1/DTD/svg11.dtd"><svg t="1753424751227" class="icon" viewBox="0 0 1024 1024" version="1.1" xmlns="http://www.w3.org/2000/svg" p-id="6726" xmlns:xlink="http://www.w3.org/1999/xlink" width="200" height="200"><path d="M512 149.3248c23.4496 0 42.6496-19.2 42.6496-42.6496V64c0-23.4752-19.2-42.6752-42.6496-42.6752-23.4752 0-42.6752 19.2-42.6752 42.6752v42.6752c0 23.4496 19.2 42.6496 42.6752 42.6496z m-353.8944 8.832a42.8032 42.8032 0 0 1 60.3392 0l30.1824 30.1568a42.8032 42.8032 0 0 1 0 60.3392 42.8032 42.8032 0 0 1-60.3392 0L158.1056 218.496a42.8032 42.8032 0 0 1 0-60.3392zM837.12 248.6784l30.1568-30.1568a42.7776 42.7776 0 0 0 0-60.3392 42.8032 42.8032 0 0 0-60.3392 0l-30.1568 30.1568a42.8032 42.8032 0 0 0 0 60.3392 42.8032 42.8032 0 0 0 60.3392 0zM832 512c0 176.7424-143.2832 320-320 320-176.7424 0-320-143.2576-320-320 0-176.7168 143.2576-320 320-320 176.7168 0 320 143.2832 320 320z m-85.3504 0a234.6752 234.6752 0 1 0-469.3248 0 234.6752 234.6752 0 0 0 469.3504 0zM64 554.6752h42.6496c23.4752 0 42.6752-19.2 42.6752-42.6752s-19.2-42.6752-42.6752-42.6752H64c-23.4752 0-42.6752 19.2-42.6752 42.6752s19.2 42.6752 42.6752 42.6752z m853.3248 0H960c23.4496 0 42.6496-19.2 42.6496-42.6752s-19.2-42.6752-42.6496-42.6752h-42.6752c-23.4752 0-42.6496 19.2-42.6496 42.6752s19.2 42.6752 42.6496 42.6752z m-50.048 252.3136L837.12 776.8064a42.8032 42.8032 0 0 0-60.3392 0 42.8032 42.8032 0 0 0 0 60.3648l30.1568 30.1568a42.8032 42.8032 0 0 0 60.3392 0 42.8032 42.8032 0 0 0 0-60.3392zM218.4448 867.3536l30.1824-30.1824a42.8032 42.8032 0 0 0 0-60.3392 42.8032 42.8032 0 0 0-60.3392 0l-30.1824 30.1824a42.8032 42.8032 0 0 0 0 60.3392 42.8032 42.8032 0 0 0 60.3392 0zM512 1002.6752c23.4496 0 42.6496-19.2 42.6496-42.6752v-42.6496c0-23.4752-19.2-42.6752-42.6496-42.6752-23.4752 0-42.6752 19.2-42.6752 42.6496V960c0 23.4752 19.2 42.6752 42.6752 42.6752z" fill="#000000" p-id="6727"></path></svg>