<?xml version="1.0" encoding="utf-8"?>
<!-- Generator: Adobe Illustrator 28.4.1, SVG Export Plug-In . SVG Version: 6.00 Build 0)  -->
<svg version="1.1" id="图层_1" xmlns="http://www.w3.org/2000/svg" xmlns:xlink="http://www.w3.org/1999/xlink" x="0px" y="0px"
	 viewBox="0 0 200 200" style="enable-background:new 0 0 200 200;" xml:space="preserve">
<style type="text/css">
	.st0{fill:#232632;}
</style>
<path class="st0" d="M104.9,17.6l-5.3-3.7l-5.3,3.7C28.4,67,27.9,120.1,27.9,122.4c0,34.9,32.4,63.4,71.6,63.4s71.6-28.4,71.6-63.4
	C171.2,67,107.5,19.5,104.9,17.6z M99.6,171.8c-30.8,0-55.7-21.9-55.7-49.4c0-0.5,0.5-46.1,55.7-89.9c14.3,12.1,55.7,49.4,55.7,89.9
	C155.3,149.5,130.4,171.8,99.6,171.8z M77.8,123.9C74.1,108,87.9,91.2,87.9,91.2l-12.7-8.4c-1.1,0.9-18.1,21.9-13.3,43.8
	c2.7,11.6,11.1,21.4,24.9,28.4l8.5-12.1C85.2,137.8,79.4,131.8,77.8,123.9z"/>
</svg>
