<svg width="237" height="236" viewBox="0 0 237 236" fill="none" xmlns="http://www.w3.org/2000/svg">
<g clip-path="url(#clip0_7255_7605)">
<path d="M181.642 18.0389V33.3842L220.956 72.3164L198.881 94.3007C196.055 91.7336 192.355 90.3416 188.537 90.4089C186.448 90.3696 184.373 90.751 182.434 91.5305C180.496 92.31 178.734 93.4715 177.253 94.9461C175.773 96.4206 174.605 98.1779 173.817 100.113C173.03 102.049 172.641 104.123 172.672 106.212V187.309C172.668 189.329 172.267 191.328 171.49 193.192C170.714 195.056 169.578 196.749 168.147 198.174C166.716 199.599 165.019 200.728 163.151 201.497C161.284 202.266 159.283 202.659 157.264 202.655H80.0171C77.9983 202.658 75.9985 202.264 74.132 201.495C72.2655 200.726 70.5687 199.596 69.1386 198.172C67.7085 196.747 66.5731 195.054 65.7971 193.19C65.0212 191.326 64.6199 189.328 64.6163 187.309V106.233C64.6464 104.144 64.2562 102.07 63.4687 100.135C62.6813 98.2003 61.5127 96.4434 60.0326 94.969C58.5524 93.4947 56.7909 92.3331 54.8528 91.5533C52.9146 90.7735 50.8395 90.3914 48.7507 90.4297C44.9493 90.4534 41.2813 91.8335 38.4072 94.3216L16.3326 72.3372L55.4174 33.405H65.0742L65.532 33.8629C71.7613 42.1168 79.8209 48.8124 89.0768 53.423C98.3328 58.0336 108.532 60.4333 118.873 60.4333C129.214 60.4333 139.413 58.0336 148.669 53.423C157.925 48.8124 165.985 42.1168 172.214 33.8629C172.213 33.8025 172.224 33.7426 172.247 33.6866C172.27 33.6306 172.303 33.5798 172.346 33.5371C172.389 33.4944 172.44 33.4607 172.496 33.438C172.551 33.4153 172.611 33.4041 172.672 33.405H181.871V18.0389M65.3239 18.0389H56.798C54.5919 17.8803 52.3779 18.2081 50.3124 18.9993C48.247 19.7905 46.3805 21.0256 44.845 22.6175L5.53125 61.5566C4.06475 62.9375 2.8962 64.6038 2.09748 66.453C1.29875 68.3021 0.886719 70.2952 0.886719 72.3095C0.886719 74.3238 1.29875 76.3168 2.09748 78.166C2.8962 80.0152 4.06475 81.6814 5.53125 83.0623L28.2926 105.74C31.0098 108.362 34.6315 109.837 38.4072 109.861C42.1609 109.731 45.7461 108.271 48.5218 105.74H48.7507C49.2085 105.74 49.2085 105.74 49.2085 106.198V187.309C49.2251 195.464 52.4801 203.279 58.2576 209.034C64.0351 214.79 71.8621 218.015 80.0171 218H157.271C165.426 218.015 173.253 214.79 179.031 209.034C184.808 203.279 188.063 195.464 188.08 187.309V106.233C188.08 105.775 188.08 105.775 188.537 105.775H188.995C191.713 108.397 195.334 109.872 199.11 109.896C202.881 109.852 206.496 108.379 209.225 105.775L231.986 83.097C233.452 81.7161 234.621 80.0499 235.42 78.2007C236.218 76.3515 236.63 74.3585 236.63 72.3442C236.63 70.3298 236.218 68.3368 235.42 66.4876C234.621 64.6385 233.452 62.9722 231.986 61.5913L192.901 22.6522C191.424 21.1759 189.666 20.0102 187.731 19.2239C185.796 18.4375 183.723 18.0464 181.635 18.0736H171.985C169.356 18.0699 166.77 18.7417 164.476 20.0245C162.181 21.3072 160.254 23.158 158.88 25.3994C154.071 31.5362 147.928 36.4988 140.918 39.9114C133.907 43.3241 126.212 45.0976 118.415 45.0976C110.618 45.0976 102.923 43.3241 95.9126 39.9114C88.902 36.4988 82.7595 31.5362 77.9498 25.3994C76.6783 23.1661 74.8387 21.3088 72.6176 20.0162C70.3965 18.7235 67.873 18.0413 65.3031 18.0389H65.3239Z" fill="black"/>
</g>
<defs>
<clipPath id="clip0_7255_7605">
<rect width="236" height="236" fill="white" transform="translate(0.871094)"/>
</clipPath>
</defs>
</svg>
