<?xml version="1.0" standalone="no"?><!DOCTYPE svg PUBLIC "-//W3C//DTD SVG 1.1//EN" "http://www.w3.org/Graphics/SVG/1.1/DTD/svg11.dtd"><svg t="1757305370589" class="icon" viewBox="0 0 1024 1024" version="1.1" xmlns="http://www.w3.org/2000/svg" p-id="20021" xmlns:xlink="http://www.w3.org/1999/xlink" width="200" height="200"><path d="M787.456 429.592381l-27.062857 22.674286-277.162667 235.617523-277.357714 235.861334-11.824762 9.825524c-14.384762 12.434286-33.158095 18.578286-52.102095 17.066666a75.142095 75.142095 0 0 1-42.081524-132.266666l206.409143-175.445334 220.452571-188.050285L776.021333 243.078095l24.868572-21.26019a20.041143 20.041143 0 0 1 3.169524-2.413715c1.219048 2.413714 0 4.022857-1.389715 5.412572a80.384 80.384 0 0 0-14.019047 49.371428v152.966096c0 3.413333-0.414476 2.194286-1.219048 2.389333z" fill="#1A9DE0" p-id="20022"></path><path d="M780.434286 440.685714v-1.170285a24.624762 24.624762 0 0 1 7.533714-7.41181l65.755429-54.905905 45.299809-37.717333a70.753524 70.753524 0 0 0 24.868572-40.472381c0-2.145524 0-4.681143 2.364952-6.436571v580.778666c3.120762 39.619048-26.989714 74.215619-67.267048 77.287619-40.252952 3.072-75.434667-26.550857-78.579809-66.145524a86.503619 86.503619 0 0 1 0-12.507428v-425.447619c0.195048-1.950476 0-3.900952 0-5.851429zM218.014476 396.336762V627.053714a8.850286 8.850286 0 0 1-3.34019 7.606857l-137.606096 118.345143A8.850286 8.850286 0 0 1 73.142857 755.809524V282.770286v-14.994286c0.585143-34.986667 25.185524-64.75581 58.977524-71.363048A70.509714 70.509714 0 0 1 181.638095 204.8l8.289524 5.193143a70.777905 70.777905 0 0 1 29.452191 59.977143v118.369524c-0.195048 3.193905 0.414476 5.802667-1.365334 7.996952z" fill="#D60419" p-id="20023"></path><path d="M224.475429 391.460571v-117.955047c0-15.506286-6.022095-30.524952-17.066667-42.447238a60.367238 60.367238 0 0 0-11.117714-9.97181S196.266667 219.989333 195.047619 219.428571c6.095238 2.608762 11.971048 5.485714 17.700571 8.679619 70.38781 35.254857 140.55619 70.314667 210.529524 105.95962 27.136 12.580571 42.837333 38.838857 39.497143 66.07238-1.828571 23.381333-16.993524 44.251429-40.106667 55.222858a83.382857 83.382857 0 0 1-73.48419-1.316572l-121.417143-61.098666-3.291428-1.462858z" fill="#DA1E30" p-id="20024"></path><path d="M920.868571 318.049524l-138.410666 95.50019-1.828572 0.926476a45.665524 45.665524 0 0 1 0-12.531809v-132.924952a63.634286 63.634286 0 0 1 10.605715-37.449143c2.535619-4.144762 6.460952-7.68 8.777142-11.995429A106.154667 106.154667 0 0 1 843.580952 197.485714c23.405714-5.193143 48.444952-2.023619 68.803048 8.704s34.084571 27.989333 37.790476 47.469715c1.048381 6.656 0.902095 13.409524-0.487619 20.041142-2.511238 17.16419-12.8 32.963048-28.818286 44.373334z" fill="#1684C8" p-id="20025"></path></svg>