<?xml version="1.0" standalone="no"?><!DOCTYPE svg PUBLIC "-//W3C//DTD SVG 1.1//EN" "http://www.w3.org/Graphics/SVG/1.1/DTD/svg11.dtd"><svg t="1757305295706" class="icon" viewBox="0 0 1024 1024" version="1.1" xmlns="http://www.w3.org/2000/svg" p-id="16710" xmlns:xlink="http://www.w3.org/1999/xlink" width="200" height="200"><path d="M102.4 102.4C20.48 184.32 0 271.36 0 512s20.48 327.68 102.4 409.6c81.92 81.92 168.96 102.4 409.6 102.4 419.84 0 512-92.16 512-512S931.84 0 512 0C271.36 0 184.32 20.48 102.4 102.4z m808.96 240.64l15.36 220.16H102.4V368.64c0-107.52 15.36-215.04 35.84-235.52 20.48-20.48 199.68-25.6 399.36-20.48l358.4 15.36 15.36 215.04z" fill="#DD3537" p-id="16711"></path><path d="M409.6 332.8c0 117.76 15.36 138.24 51.2 76.8 46.08-66.56 56.32-66.56 102.4 0 35.84 61.44 51.2 40.96 51.2-76.8s-15.36-138.24-51.2-76.8c-46.08 66.56-56.32 66.56-102.4 0-35.84-61.44-51.2-40.96-51.2 76.8z" fill="#DD3537" p-id="16712"></path></svg>