<svg width="16" height="16" viewBox="0 0 16 16" fill="none" xmlns="http://www.w3.org/2000/svg">
<g clip-path="url(#clip0_2793_4249)">
<path d="M7.33331 5.33333V7.33333H5.33331V8.66667H7.33331V10.6667H8.66665V8.66667H10.6666V7.33333H8.66665V5.33333H7.33331ZM8.66665 1.36667V3.38667C10.9266 3.71334 12.6666 5.64667 12.6666 8C12.6666 8.6 12.5466 9.16667 12.3466 9.69333L14.08 10.7133C14.4533 9.88667 14.6666 8.96667 14.6666 8C14.6666 4.54667 12.0333 1.7 8.66665 1.36667ZM7.99998 12.6667C5.41998 12.6667 3.33331 10.58 3.33331 8C3.33331 5.64667 5.07331 3.71334 7.33331 3.38667V1.36667C3.95998 1.7 1.33331 4.54 1.33331 8C1.33331 11.68 4.31331 14.6667 7.99331 14.6667C10.2 14.6667 12.1533 13.5933 13.3666 11.94L11.6333 10.92C10.78 11.9867 9.47331 12.6667 7.99998 12.6667Z" fill="#E3E3E3"/>
</g>
<defs>
<clipPath id="clip0_2793_4249">
<rect width="16" height="16" fill="white"/>
</clipPath>
</defs>
</svg>
