<svg width="800" height="800" viewBox="0 0 800 800" fill="none" xmlns="http://www.w3.org/2000/svg">
<circle cx="400" cy="400" r="400" fill="white" fill-opacity="0.2"/>
<path d="M351.313 268.304C348.961 266.737 346.227 265.837 343.402 265.698C340.577 265.56 337.768 266.189 335.273 267.518C332.778 268.847 330.691 270.827 329.234 273.247C327.777 275.666 327.005 278.435 327 281.258V535.102C327.005 537.925 327.777 540.693 329.234 543.113C330.691 545.532 332.778 547.512 335.273 548.841C337.768 550.17 340.577 550.799 343.402 550.661C346.227 550.523 348.961 549.622 351.313 548.055L542.027 421.172C544.172 419.748 545.93 417.816 547.147 415.549C548.363 413.283 549 410.751 549 408.18C549 405.608 548.363 403.077 547.147 400.81C545.93 398.543 544.172 396.612 542.027 395.187L351.313 268.304Z" fill="white"/>
</svg>
