<svg width="32" height="32" viewBox="0 0 32 32" fill="none" xmlns="http://www.w3.org/2000/svg">
<g clip-path="url(#clip0_1687_3439)">
<circle cx="12.5457" cy="14.0112" r="10.7244" transform="rotate(6.91908 12.5457 14.0112)" fill="url(#paint0_linear_1687_3439)"/>
<g filter="url(#filter0_f_1687_3439)">
<path d="M12.7767 25.7869L18.3769 19.8631L15.8329 24.4391L18.9252 24.8143L13.7827 30.1605L15.8009 26.1539L12.7767 25.7869Z" fill="url(#paint1_linear_1687_3439)"/>
</g>
<path d="M12.7767 25.7869L18.3769 19.8631L15.8329 24.4391L18.9252 24.8143L13.7827 30.1605L15.8009 26.1539L12.7767 25.7869Z" fill="url(#paint2_linear_1687_3439)"/>
<g filter="url(#filter1_f_1687_3439)">
<ellipse cx="17.9807" cy="21.557" rx="3.45892" ry="3.19285" transform="rotate(6.91908 17.9807 21.557)" fill="url(#paint3_linear_1687_3439)"/>
</g>
<circle cx="21.5" cy="17.6605" r="7.94682" transform="rotate(6.91908 21.5 17.6605)" fill="url(#paint4_linear_1687_3439)"/>
</g>
<defs>
<filter id="filter0_f_1687_3439" x="11.3938" y="18.4795" width="8.91558" height="13.0646" filterUnits="userSpaceOnUse" color-interpolation-filters="sRGB">
<feFlood flood-opacity="0" result="BackgroundImageFix"/>
<feBlend mode="normal" in="SourceGraphic" in2="BackgroundImageFix" result="shape"/>
<feGaussianBlur stdDeviation="0.691784" result="effect1_foregroundBlur_1687_3439"/>
</filter>
<filter id="filter1_f_1687_3439" x="11.8248" y="15.6591" width="12.3114" height="11.7958" filterUnits="userSpaceOnUse" color-interpolation-filters="sRGB">
<feFlood flood-opacity="0" result="BackgroundImageFix"/>
<feBlend mode="normal" in="SourceGraphic" in2="BackgroundImageFix" result="shape"/>
<feGaussianBlur stdDeviation="1.35031" result="effect1_foregroundBlur_1687_3439"/>
</filter>
<linearGradient id="paint0_linear_1687_3439" x1="12.5457" y1="3.28683" x2="9.09117" y2="24.7356" gradientUnits="userSpaceOnUse">
<stop stop-color="#585858"/>
<stop offset="1" stop-color="#BABABA"/>
</linearGradient>
<linearGradient id="paint1_linear_1687_3439" x1="16.5379" y1="19.6399" x2="15.2398" y2="30.3373" gradientUnits="userSpaceOnUse">
<stop stop-color="#FFA100"/>
<stop offset="1" stop-color="#FFE0AC"/>
</linearGradient>
<linearGradient id="paint2_linear_1687_3439" x1="16.5379" y1="19.6399" x2="15.2398" y2="30.3373" gradientUnits="userSpaceOnUse">
<stop stop-color="#FFA100"/>
<stop offset="1" stop-color="#FFE0AC"/>
</linearGradient>
<linearGradient id="paint3_linear_1687_3439" x1="17.9807" y1="18.3641" x2="17.0278" y2="24.7738" gradientUnits="userSpaceOnUse">
<stop stop-color="#7C7C7C"/>
<stop offset="1" stop-color="#BABABA"/>
</linearGradient>
<linearGradient id="paint4_linear_1687_3439" x1="21.5" y1="9.71367" x2="18.9401" y2="25.6073" gradientUnits="userSpaceOnUse">
<stop stop-color="#7C7C7C"/>
<stop offset="1" stop-color="#BABABA"/>
</linearGradient>
<clipPath id="clip0_1687_3439">
<rect width="32" height="32" rx="4" fill="white"/>
</clipPath>
</defs>
</svg>
