<svg width="16" height="16" viewBox="0 0 16 16" fill="none" xmlns="http://www.w3.org/2000/svg">
<g clip-path="url(#clip0_3813_385)">
<path d="M9.8728 2.55966C9.60614 2.10188 9.22614 1.78633 8.7328 1.61299C8.24392 1.44411 7.75503 1.44411 7.26614 1.61299C6.7728 1.78633 6.3928 2.10188 6.12614 2.55966L1.02614 11.2663C0.746138 11.7241 0.655027 12.2086 0.752805 12.7197C0.846138 13.2308 1.08836 13.6597 1.47947 14.0063C1.87058 14.353 2.33725 14.5263 2.87947 14.5263H13.1061C13.6484 14.5263 14.1172 14.3552 14.5128 14.013C14.9084 13.6752 15.1528 13.2486 15.2461 12.733C15.3439 12.2219 15.2528 11.733 14.9728 11.2663L9.8728 2.55966ZM7.99947 9.87299C7.81725 9.87299 7.65947 9.80633 7.52614 9.67299C7.3928 9.53966 7.32614 9.38188 7.32614 9.19966V5.77299C7.32614 5.59522 7.3928 5.44188 7.52614 5.31299C7.65947 5.18411 7.81725 5.11966 7.99947 5.11966C8.18169 5.11966 8.33947 5.18411 8.4728 5.31299C8.60614 5.44188 8.6728 5.59522 8.6728 5.77299V9.19966C8.6728 9.38188 8.60614 9.53966 8.4728 9.67299C8.33947 9.80633 8.18169 9.87299 7.99947 9.87299ZM7.99947 10.753C8.23503 10.753 8.4328 10.833 8.5928 10.993C8.7528 11.153 8.8328 11.3508 8.8328 11.5863C8.8328 11.8174 8.7528 12.013 8.5928 12.173C8.4328 12.333 8.23503 12.413 7.99947 12.413C7.76392 12.413 7.56614 12.333 7.40614 12.173C7.24614 12.013 7.16614 11.8174 7.16614 11.5863C7.16614 11.3508 7.24614 11.153 7.40614 10.993C7.56614 10.833 7.76392 10.753 7.99947 10.753Z" fill="#BE1B1B"/>
<path d="M7.99902 10.7529C8.23458 10.7529 8.43277 10.8332 8.59277 10.9932C8.75264 11.1531 8.83292 11.3506 8.83301 11.5859C8.83301 11.817 8.75274 12.0129 8.59277 12.1729C8.43277 12.3329 8.23458 12.4131 7.99902 12.4131C7.76367 12.413 7.56615 12.3328 7.40625 12.1729C7.24626 12.0129 7.16602 11.817 7.16602 11.5859C7.1661 11.3506 7.24636 11.1531 7.40625 10.9932C7.56615 10.8333 7.76367 10.753 7.99902 10.7529ZM7.99902 5.12012C8.18125 5.12012 8.33932 5.18459 8.47266 5.31348C8.60588 5.44233 8.67285 5.59573 8.67285 5.77344V9.19922C8.67285 9.38144 8.60599 9.53952 8.47266 9.67285C8.33932 9.80618 8.18124 9.87305 7.99902 9.87305C7.81701 9.87294 7.65958 9.80605 7.52637 9.67285C7.39303 9.53952 7.32617 9.38144 7.32617 9.19922V5.77344C7.32617 5.59571 7.39312 5.44234 7.52637 5.31348C7.65959 5.18469 7.81699 5.12022 7.99902 5.12012Z" fill="white"/>
</g>
<defs>
<clipPath id="clip0_3813_385">
<rect width="16" height="16" fill="white"/>
</clipPath>
</defs>
</svg>
