<svg width="32" height="32" viewBox="0 0 32 32" fill="none" xmlns="http://www.w3.org/2000/svg">
<g clip-path="url(#clip0_1687_3447)">
<ellipse cx="13.9072" cy="13.7319" rx="10.9248" ry="10.7593" fill="url(#paint0_linear_1687_3447)"/>
<circle cx="22.019" cy="16.7114" r="8.11084" fill="url(#paint1_linear_1687_3447)"/>
<g filter="url(#filter0_f_1687_3447)">
<rect x="10.4102" y="27.1434" width="1.75027" height="4.25737" rx="0.875136" transform="rotate(-150 10.4102 27.1434)" fill="url(#paint2_linear_1687_3447)"/>
</g>
<rect x="11.502" y="30.207" width="1.75027" height="4.25737" rx="0.875136" transform="rotate(-150 11.502 30.207)" fill="url(#paint3_linear_1687_3447)"/>
<rect x="17.4141" y="27.1434" width="1.75027" height="4.25737" rx="0.875136" transform="rotate(-150 17.4141 27.1434)" fill="url(#paint4_linear_1687_3447)"/>
<rect x="18.5039" y="30.207" width="1.75027" height="4.25737" rx="0.875136" transform="rotate(-150 18.5039 30.207)" fill="url(#paint5_linear_1687_3447)"/>
</g>
<defs>
<filter id="filter0_f_1687_3447" x="8.55273" y="22.2394" width="4.32812" height="5.24597" filterUnits="userSpaceOnUse" color-interpolation-filters="sRGB">
<feFlood flood-opacity="0" result="BackgroundImageFix"/>
<feBlend mode="normal" in="SourceGraphic" in2="BackgroundImageFix" result="shape"/>
<feGaussianBlur stdDeviation="0.331055" result="effect1_foregroundBlur_1687_3447"/>
</filter>
<linearGradient id="paint0_linear_1687_3447" x1="13.9072" y1="2.97266" x2="10.4913" y2="24.5076" gradientUnits="userSpaceOnUse">
<stop stop-color="#EFEFEF"/>
<stop offset="1" stop-color="#565454"/>
</linearGradient>
<linearGradient id="paint1_linear_1687_3447" x1="22.019" y1="8.60059" x2="19.4064" y2="24.8223" gradientUnits="userSpaceOnUse">
<stop stop-color="#EFEFEF"/>
<stop offset="1" stop-color="#565454"/>
</linearGradient>
<linearGradient id="paint2_linear_1687_3447" x1="11.2853" y1="27.1434" x2="9.80182" y2="30.9301" gradientUnits="userSpaceOnUse">
<stop stop-color="#EFEFEF"/>
<stop offset="1" stop-color="#7898C8"/>
</linearGradient>
<linearGradient id="paint3_linear_1687_3447" x1="12.3771" y1="30.207" x2="10.8936" y2="33.9937" gradientUnits="userSpaceOnUse">
<stop stop-color="#EFEFEF"/>
<stop offset="1" stop-color="#7898C8"/>
</linearGradient>
<linearGradient id="paint4_linear_1687_3447" x1="18.2892" y1="27.1434" x2="16.8057" y2="30.9301" gradientUnits="userSpaceOnUse">
<stop stop-color="#EFEFEF"/>
<stop offset="1" stop-color="#7898C8"/>
</linearGradient>
<linearGradient id="paint5_linear_1687_3447" x1="19.379" y1="30.207" x2="17.8956" y2="33.9937" gradientUnits="userSpaceOnUse">
<stop stop-color="#EFEFEF"/>
<stop offset="1" stop-color="#7898C8"/>
</linearGradient>
<clipPath id="clip0_1687_3447">
<rect width="32" height="32" fill="white"/>
</clipPath>
</defs>
</svg>
